HIERARCHY
ROOT hip
{
	OFFSET 0.000000 0.000000 0.000000 
	CHANNELS 6 Xposition Yposition Zposition Xrotation Zrotation Yrotation
	JOINT abdomen
	{
		OFFSET 0.000000 3.402643 0.000000 
		CHANNELS 3 Xrotation Zrotation Yrotation
		JOINT chest
		{
			OFFSET 0.000000 8.438565 -0.680529 
			CHANNELS 3 Xrotation Zrotation Yrotation
			JOINT neck
			{
				OFFSET 0.000000 10.207942 -0.272212 
				CHANNELS 3 Xrotation Zrotation Yrotation
				JOINT head
				{
					OFFSET 0.000000 3.130431 0.000000 
					CHANNELS 3 Xrotation Zrotation Yrotation
					End Site
					{
						OFFSET 0.000000 3.130435 0.000000 
					}
				}
			}
			JOINT lCollar
			{
				OFFSET 3.470700 6.669187 -0.816635 
				CHANNELS 3 Yrotation Zrotation Xrotation
				JOINT lShldr
				{
					OFFSET 3.198488 0.000000 0.000000 
					CHANNELS 3 Zrotation Yrotation Xrotation
					JOINT lForeArm
					{
						OFFSET 10.139888 0.000000 0.000000 
						CHANNELS 3 Yrotation Zrotation Xrotation
						JOINT lHand
						{
							OFFSET 8.370511 0.000000 0.000000 
							CHANNELS 3 Zrotation Yrotation Xrotation
							End Site
							{
								OFFSET 4.083176 0.000000 0.000000 
							}
						}
					}
				}
			}
			JOINT rCollar
			{
				OFFSET -3.470700 6.669187 -0.816635 
				CHANNELS 3 Yrotation Zrotation Xrotation
				JOINT rShldr
				{
					OFFSET -3.198488 0.000000 0.000000 
					CHANNELS 3 Zrotation Yrotation Xrotation
					JOINT rForeArm
					{
						OFFSET -10.139888 0.000000 0.000000 
						CHANNELS 3 Yrotation Zrotation Xrotation
						JOINT rHand
						{
							OFFSET -8.370511 0.000000 0.000000 
							CHANNELS 3 Zrotation Yrotation Xrotation
							End Site
							{
								OFFSET -4.083176 0.000000 0.000000 
							}
						}
					}
				}
			}
		}
	}
	JOINT lThigh
	{
		OFFSET 5.308129 -1.633274 1.361059 
		CHANNELS 3 Xrotation Zrotation Yrotation
		JOINT lShin
		{
			OFFSET -2.041588 -20.007561 0.000000 
			CHANNELS 3 Xrotation Zrotation Yrotation
			JOINT lFoot
			{
				OFFSET 0.000000 -19.190928 -1.224953 
				CHANNELS 3 Xrotation Yrotation Zrotation
				End Site
				{
					OFFSET 0.000000 -2.449906 4.627600 
				}
			}
		}
	}
	JOINT rThigh
	{
		OFFSET -5.308129 -1.633274 1.361059 
		CHANNELS 3 Xrotation Zrotation Yrotation
		JOINT rShin
		{
			OFFSET 2.041588 -20.007561 0.000000 
			CHANNELS 3 Xrotation Zrotation Yrotation
			JOINT rFoot
			{
				OFFSET 0.000000 -19.190928 -1.224953 
				CHANNELS 3 Xrotation Yrotation Zrotation
				End Site
				{
					OFFSET 0.000000 -2.449906 4.627600 
				}
			}
		}
	}
}
MOTION
Frames: 11
Frame Time: 0.033333
-19.352823 51.792519 17.233917 3.339844 4.541016 -49.481647 29.822811 -7.874106 -5.629282 -29.365234 9.599609 0.978191 51.063168 8.107644 2.471410 -59.189457 -13.320312 -1.640625 2.000000 -2.000000 0.000000 -91.738281 16.728516 5.803594 -50.752972 -1.835959 -2.011643 9.900883 66.637161 10.518625 -2.000000 2.000000 0.000000 88.173828 -15.195313 8.561893 52.998898 1.463789 -2.004267 -7.477351 -57.931904 2.783881 -11.172304 -3.543149 3.588271 20.398760 -5.526964 -1.953734 -6.788979 13.655918 0.243260 21.755230 -0.870007 -25.527155 10.384037 5.228737 0.931116 6.485272 -24.422853 -26.985712 
-19.972488 52.389656 18.519075 2.812500 4.384766 -48.993393 29.822811 -7.874106 -5.629282 -29.365234 9.599609 0.978191 51.063168 8.107644 2.471410 -58.994141 -13.164063 -0.490506 2.000000 -2.000000 0.000000 -90.878906 15.839844 7.375714 -51.104813 -1.826779 -2.021958 9.773761 65.727310 9.832264 -2.000000 2.000000 0.000000 87.617188 -15.068358 9.567775 53.186298 1.634072 -2.072591 -7.914407 -58.404072 3.002589 -8.223277 -4.410778 4.173809 17.732325 -5.175236 -1.991874 -6.301786 13.451764 -0.176214 11.331223 -6.307262 -25.426149 25.870760 4.496443 2.303210 13.061253 -29.053286 -16.614321 
-20.366856 52.509727 19.914743 2.636719 4.189420 -48.485840 29.822811 -7.874106 -5.629282 -29.365234 9.599609 0.978191 51.063168 8.107644 2.471410 -58.789063 -13.017576 0.146484 2.000000 -2.000000 0.000000 -90.039063 14.511719 8.925781 -51.456905 -1.827916 -2.041449 9.456790 64.424850 8.540798 -2.000000 2.000000 0.000000 87.871094 -15.166017 7.927133 52.998898 1.463789 -2.004267 -8.032073 -59.459835 2.907112 -5.502302 -5.512649 3.969154 15.799521 -5.676224 -1.499481 -6.798419 14.062563 0.343990 1.678892 -10.790321 -24.017788 38.912346 3.901778 3.079891 20.006292 -31.687481 -6.177656 
-20.615530 52.457977 21.395927 2.636719 3.837861 -47.450741 29.822811 -7.874106 -5.629282 -29.365234 9.599609 0.978191 51.063168 8.107644 2.471410 -58.437500 -13.056640 0.068359 2.000000 -2.000000 0.000000 -89.326172 13.232422 9.992470 -51.633766 -1.957497 -2.082784 9.870900 63.413185 8.101179 -2.000000 2.000000 0.000000 89.082031 -15.292970 4.743518 52.823101 1.473538 -2.003700 -9.903559 -60.707779 4.718904 -2.467343 -6.380939 4.268350 13.134709 -5.741835 -1.279664 -6.769601 14.037970 1.142269 -6.406188 -14.333203 -22.401701 47.818275 3.320042 3.606356 23.796354 -32.348881 1.244919 
-20.813524 52.316498 22.848879 3.164063 2.968750 -45.712387 29.822811 -7.874106 -5.629282 -29.365234 9.599609 0.978191 51.063168 8.107644 2.471410 -58.056641 -12.919921 -0.546875 2.000000 -2.000000 0.000000 -88.945313 11.982422 10.900466 -51.456905 -1.827916 -2.041449 9.730096 62.425148 6.916326 -2.000000 2.000000 0.000000 89.697266 -15.146484 2.214247 52.658131 1.651865 -2.042221 -10.840503 -61.206364 6.113553 0.137237 -6.555708 4.234648 11.026014 -5.779094 -1.086728 -7.030777 13.267031 1.710494 -11.669512 -15.584347 -21.553165 49.765541 3.176081 3.890801 21.693115 -32.644596 1.487816 
-21.165997 52.207737 24.218622 3.681641 2.275391 -43.798828 29.822811 -7.874106 -5.629282 -29.365234 9.599609 0.978191 51.063168 8.107644 2.471410 -57.470707 -12.617187 -1.601564 2.000000 -2.000000 0.000000 -88.515625 10.341797 11.642380 -51.104797 -1.836528 -2.021389 10.546897 61.330044 6.879005 -2.000000 2.000000 0.000000 89.814453 -14.648437 1.384251 52.483696 1.791763 -2.092756 -10.910140 -60.669891 6.314871 2.692054 -6.347829 3.852410 9.117622 -5.800485 -0.927802 -7.435377 12.408165 2.705703 -14.314936 -15.435411 -21.573725 46.413036 3.408027 3.551250 15.463229 -32.274139 -1.914435 
-21.866550 52.002476 25.445229 4.218750 1.386719 -42.089603 29.822811 -7.874106 -5.629282 -29.365234 9.599609 0.978191 51.063168 8.107644 2.471410 -56.884766 -12.158202 -3.007813 2.000000 -2.000000 0.000000 -87.880859 8.720703 12.441406 -50.577721 -1.974152 -2.032919 11.120992 60.467201 6.944811 -2.000000 2.000000 0.000000 90.107422 -14.257812 1.074219 52.482346 1.651865 -2.042220 -10.889095 -59.604923 6.592455 4.868896 -5.765933 3.064013 7.896963 -5.809910 -0.595782 -8.368412 11.770862 3.356036 -15.839349 -14.471545 -21.986006 40.618092 3.915359 3.241252 9.213126 -29.481657 -5.370827 
-22.865540 51.774826 26.429522 4.570313 1.044922 -40.878727 29.822811 -7.874106 -5.629282 -29.365234 9.599609 0.978191 51.063168 8.107644 2.471410 -56.669922 -11.835938 -3.964844 2.000000 -2.000000 0.000000 -87.197266 7.441407 13.076174 -50.401917 -1.983901 -2.032351 12.013411 59.960331 7.708616 -2.000000 2.000000 0.000000 90.205078 -13.720702 0.808232 52.306545 1.661614 -2.041653 -10.547884 -58.946655 6.584699 6.544926 -5.032405 2.292755 8.067736 -5.807958 -0.611366 -8.898846 11.409647 3.205389 -17.537201 -13.658740 -22.904575 35.333778 4.110374 2.674731 4.609427 -24.283758 -6.997241 
-24.157181 51.525581 27.398659 4.746094 1.210938 -39.990028 29.822811 -7.874106 -5.629282 -29.365234 9.599609 0.978191 51.063168 8.107644 2.471410 -56.982426 -11.445312 -4.628907 2.000000 -2.000000 0.000000 -86.748047 6.591797 13.613281 -50.225872 -1.983332 -2.022605 12.313213 60.267014 7.853275 -2.000000 2.000000 0.000000 90.253906 -13.154298 0.583715 52.307369 1.800375 -2.072698 -9.636011 -58.360859 5.972517 8.354419 -4.420896 1.165905 7.884262 -5.827537 -0.586101 -9.956637 11.286207 3.190697 -19.528131 -13.022758 -22.586699 30.580057 4.388944 2.483923 3.327836 -17.677938 -2.452633 
-25.728045 51.115723 28.396370 4.902344 1.386719 -39.433590 29.822811 -7.874106 -5.629282 -29.365234 9.599609 0.978191 51.063168 8.107644 2.471410 -57.324219 -11.230468 -5.468750 2.000000 -2.000000 0.000000 -86.347656 5.654297 14.073229 -50.401337 -1.874956 -2.009369 12.650520 61.277706 9.152797 -2.000000 2.000000 0.000000 90.185547 -12.890625 0.976562 52.482346 1.651865 -2.042220 -9.054103 -58.081806 5.442897 10.827584 -3.778059 0.196105 5.954022 -5.849070 -0.424523 -10.789845 11.127039 3.065576 -21.151844 -12.186853 -22.393713 25.124458 4.624109 2.288108 1.918236 -9.896172 5.323265 
-27.482784 50.657841 29.361919 5.078125 1.748047 -38.876953 29.822811 -7.874106 -5.629282 -29.365234 9.599609 0.978191 51.063168 8.107644 2.471410 -57.656250 -11.025390 -6.124915 2.000000 -2.000000 0.000000 -86.191406 5.117187 13.955079 -50.401917 -1.983901 -2.032351 13.100627 62.036156 10.391502 -2.000000 2.000000 0.000000 90.126953 -12.568359 1.169752 52.483448 1.781445 -2.083577 -8.399527 -57.822060 5.003468 13.599893 -3.094755 -0.891604 4.173590 -5.833942 -0.110036 -11.932686 11.236457 2.717392 -22.574198 -11.362963 -21.310230 19.663748 4.911098 1.181330 0.699938 -3.679560 13.145673 
